<?xml version="1.0" standalone="no"?>
<!DOCTYPE svg PUBLIC "-//W3C//DTD SVG 20010904//EN"
 "http://www.w3.org/TR/2001/REC-SVG-20010904/DTD/svg10.dtd">
<svg version="1.0" xmlns="http://www.w3.org/2000/svg"
 width="508.000000pt" height="508.000000pt" viewBox="0 0 508.000000 508.000000"
 preserveAspectRatio="xMidYMid meet">
<metadata>
Created by potrace 1.11, written by Peter Selinger 2001-2013
</metadata>
<g transform="translate(0.000000,508.000000) scale(0.100000,-0.100000)"
fill="#000000" stroke="none">
<path d="M2390 5042 c-51 -27 -80 -89 -80 -173 0 -37 -4 -79 -9 -92 -22 -58
-93 -93 -155 -76 -19 5 -58 32 -87 60 -61 58 -83 69 -140 69 -55 0 -71 -10
-171 -108 -130 -128 -135 -182 -29 -296 65 -70 76 -99 61 -156 -11 -40 -58
-89 -88 -91 -9 -1 -50 -3 -90 -5 -83 -3 -125 -22 -159 -74 -21 -30 -23 -45
-23 -160 0 -115 2 -130 23 -160 33 -51 74 -70 148 -71 120 -2 168 -28 189
-100 16 -53 3 -86 -65 -160 -64 -70 -76 -98 -67 -161 7 -46 181 -222 234 -236
59 -16 107 2 171 63 87 83 159 91 222 25 27 -28 29 -38 35 -129 6 -97 11 -112
50 -152 33 -34 59 -39 187 -39 109 0 133 3 160 20 50 30 73 85 73 176 0 64 4
84 23 111 29 43 82 64 131 53 40 -9 50 -15 115 -78 47 -45 88 -62 136 -54 49
7 76 26 161 114 125 128 129 180 24 293 -70 75 -82 114 -54 171 31 62 61 77
158 80 154 3 186 44 186 234 0 128 -10 165 -53 203 -26 22 -44 26 -132 31 -38
2 -75 4 -82 5 -26 2 -73 54 -83 91 -15 57 -3 88 60 155 57 60 83 112 75 150
-2 11 -4 26 -4 33 -2 22 -174 194 -212 211 -63 29 -111 17 -177 -44 -91 -84
-132 -97 -198 -64 -56 26 -74 66 -74 159 0 87 -19 132 -69 166 -33 22 -45 24
-161 24 -102 0 -132 -3 -160 -18z m291 -662 c158 -50 275 -176 313 -337 32
-140 -11 -310 -104 -411 -239 -258 -654 -177 -780 153 -33 85 -33 225 0 310
90 235 338 359 571 285z"/>
<path d="M1310 3509 c-41 -12 -82 -21 -90 -22 -8 -1 -19 -5 -25 -10 -28 -21
-128 -66 -136 -61 -5 3 -8 1 -7 -4 2 -5 -22 -30 -53 -55 -31 -25 -82 -80 -114
-122 -57 -76 -210 -307 -222 -335 -22 -51 -78 -138 -86 -133 -6 3 -7 1 -4 -4
9 -15 -66 -166 -77 -156 -5 4 -6 3 -3 -3 4 -7 -20 -68 -53 -137 -33 -69 -60
-130 -60 -137 0 -6 -5 -8 -12 -4 -6 4 -8 3 -5 -3 3 -5 -14 -58 -38 -118 -89
-215 -183 -508 -220 -690 -9 -44 -19 -87 -22 -95 -3 -8 -7 -26 -8 -40 -1 -14
-8 -69 -15 -123 -16 -126 -8 -420 13 -497 38 -136 80 -219 149 -291 18 -19 31
-38 30 -44 -2 -5 0 -7 3 -3 4 4 22 -4 39 -17 42 -32 147 -79 216 -96 35 -9
107 -14 195 -13 117 0 150 4 199 22 32 12 63 19 67 16 5 -3 9 -1 9 3 0 5 19
18 43 28 94 42 205 124 338 252 47 46 90 79 94 75 5 -4 5 -2 2 4 -8 13 157
177 168 166 5 -4 5 -2 2 5 -8 13 168 169 189 167 8 -1 11 2 8 7 -14 24 211
139 334 170 77 19 103 20 400 17 287 -4 324 -6 387 -25 38 -12 71 -26 73 -32
2 -6 8 -9 13 -5 23 14 288 -153 271 -171 -4 -4 -2 -5 5 -2 13 8 295 -261 287
-274 -3 -5 2 -9 10 -9 9 0 16 -3 16 -7 0 -11 56 -68 146 -148 43 -38 85 -77
94 -85 9 -9 33 -26 53 -39 21 -13 43 -29 50 -36 23 -22 161 -83 237 -104 91
-26 263 -28 358 -6 35 8 67 13 72 10 5 -3 10 -2 12 3 1 4 34 23 72 41 85 42
178 132 223 216 17 33 44 101 59 150 27 87 28 97 28 320 1 198 -3 247 -22 350
-64 338 -181 692 -352 1065 -60 132 -183 373 -202 397 -5 7 -6 18 -2 24 5 8 3
9 -6 4 -10 -6 -12 -4 -7 9 4 10 3 15 -3 11 -12 -7 -33 32 -24 47 4 6 3 8 -2 5
-10 -6 -117 157 -117 179 0 7 -4 12 -8 11 -4 -1 -29 30 -57 68 -152 216 -376
335 -629 335 l-92 0 33 -48 c44 -66 61 -147 46 -215 -11 -45 -51 -132 -69
-147 -3 -3 -19 -24 -34 -46 -61 -90 -222 -222 -367 -301 -51 -28 -172 -79
-209 -89 -9 -2 -50 -13 -91 -24 -107 -30 -333 -37 -462 -16 -155 25 -361 100
-419 152 -8 8 -21 14 -27 14 -7 0 -12 5 -12 11 0 5 -4 8 -9 5 -5 -4 -11 -3
-13 1 -1 5 -28 27 -58 49 -104 78 -280 268 -280 303 0 6 -4 11 -10 11 -5 0 -7
7 -4 15 3 8 1 37 -6 64 -15 66 2 148 46 213 l33 48 -102 -1 c-70 0 -126 -7
-177 -20z m2380 -779 c40 -20 80 -67 80 -93 0 -9 4 -18 8 -21 7 -4 7 -51 -1
-96 -6 -38 -48 -90 -88 -111 -51 -25 -123 -28 -166 -6 -60 31 -103 106 -103
177 0 34 32 101 59 125 55 48 145 59 211 25z m-2164 -65 c42 -32 65 -81 63
-133 -1 -20 -2 -67 -1 -104 l2 -68 99 0 c106 0 153 -11 189 -44 40 -35 55 -74
50 -128 -5 -52 -27 -89 -72 -122 -27 -21 -38 -22 -198 -25 l-68 -1 0 -107 c0
-86 -4 -115 -20 -148 -41 -84 -151 -111 -227 -56 -57 41 -73 88 -73 210 l0 99
-118 4 c-113 3 -121 4 -156 32 -23 17 -35 34 -32 43 3 8 2 11 -3 8 -14 -8 -20
6 -26 56 -4 34 0 55 17 89 34 66 76 84 211 88 l107 4 1 66 c0 126 5 158 25
192 47 81 155 102 230 45z m1767 -266 c87 -24 148 -124 128 -212 -11 -45 -58
-110 -73 -101 -7 4 -8 2 -4 -5 12 -19 -61 -44 -114 -39 -94 9 -162 85 -161
181 0 84 42 145 118 172 47 17 58 18 106 4z m713 0 c47 -12 100 -56 124 -102
8 -16 14 -52 14 -81 0 -68 -40 -131 -104 -163 -52 -27 -96 -29 -148 -8 -137
58 -163 232 -48 320 56 43 94 51 162 34z m-318 -370 c163 -79 117 -332 -63
-347 -30 -2 -65 -2 -79 2 -57 14 -135 113 -136 171 -1 141 150 236 278 174z"/>
</g>
</svg>
