<?xml version="1.0" standalone="no"?>
<!DOCTYPE svg PUBLIC "-//W3C//DTD SVG 20010904//EN"
 "http://www.w3.org/TR/2001/REC-SVG-20010904/DTD/svg10.dtd">
<svg version="1.0" xmlns="http://www.w3.org/2000/svg"
 width="752.000000pt" height="752.000000pt" viewBox="0 0 752.000000 752.000000"
 preserveAspectRatio="xMidYMid meet">
<metadata>
Created by potrace 1.11, written by Peter Selinger 2001-2013
</metadata>
<g transform="translate(0.000000,752.000000) scale(0.100000,-0.100000)"
fill="#000000" stroke="none">
<path d="M3465 7513 c-511 -49 -937 -166 -1360 -374 -377 -185 -705 -419
-1005 -719 -592 -591 -959 -1339 -1076 -2190 -21 -156 -30 -596 -15 -775 126
-1512 1136 -2794 2576 -3270 256 -84 549 -146 825 -173 142 -14 575 -12 729 4
1295 132 2426 920 2999 2086 178 362 297 753 353 1158 27 196 37 602 20 805
-139 1676 -1356 3045 -3010 3386 -226 47 -383 61 -696 64 -165 1 -318 0 -340
-2z m572 -324 c689 -56 1339 -315 1878 -746 200 -160 453 -424 616 -643 823
-1103 892 -2640 174 -3821 -229 -376 -545 -722 -905 -990 -400 -298 -887 -511
-1390 -608 -385 -75 -816 -80 -1215 -15 -1347 220 -2451 1241 -2774 2567 -232
949 -61 1929 474 2732 134 201 247 338 430 521 491 493 1082 812 1758 948 118
24 329 53 432 59 123 8 405 6 522 -4z"/>
<path d="M3602 6479 c-51 -33 -72 -84 -72 -178 0 -75 -2 -82 -31 -116 -62 -70
-138 -66 -216 12 -61 61 -83 73 -135 73 -66 0 -82 -10 -180 -108 -128 -129
-134 -185 -33 -292 61 -63 77 -97 69 -143 -13 -80 -57 -109 -171 -114 -98 -4
-135 -20 -170 -73 -21 -30 -23 -45 -23 -160 0 -115 2 -130 23 -160 35 -53 73
-70 158 -72 114 -2 160 -28 179 -99 15 -56 3 -86 -61 -155 -104 -112 -100
-164 25 -293 82 -84 142 -123 180 -115 12 2 33 6 47 9 14 3 49 28 77 56 28 27
66 56 84 63 50 19 109 3 147 -40 29 -33 31 -39 31 -117 0 -95 17 -139 70 -174
30 -21 45 -23 163 -23 114 0 134 2 164 21 49 31 72 82 72 165 0 85 10 113 51
147 31 26 49 31 100 27 24 -1 100 -46 100 -59 0 -14 75 -64 107 -71 60 -14
101 6 191 94 94 91 115 123 114 177 -1 49 -14 72 -78 140 -64 68 -77 114 -48
168 32 59 60 72 158 77 153 7 183 43 185 229 3 178 -33 234 -150 236 -130 2
-180 27 -199 99 -15 57 -4 86 65 161 60 65 78 103 70 145 -2 10 -4 25 -4 32
-1 18 -170 191 -202 208 -64 33 -131 18 -190 -42 -91 -94 -166 -105 -234 -34
-26 27 -29 38 -35 129 -12 166 -44 191 -242 191 -108 0 -127 -3 -156 -21z
m286 -653 c75 -20 155 -71 217 -138 199 -214 143 -559 -115 -711 -200 -116
-474 -51 -608 146 -101 148 -102 367 -1 513 113 165 316 240 507 190z"/>
<path d="M2520 4946 c-47 -12 -116 -38 -155 -56 -38 -19 -75 -34 -82 -33 -7 0
-11 -3 -10 -6 1 -4 -26 -31 -61 -60 -35 -29 -66 -59 -69 -67 -3 -8 -9 -11 -14
-8 -5 3 -8 2 -7 -3 4 -12 -53 -93 -62 -88 -3 2 -7 -1 -7 -8 0 -19 -104 -172
-115 -169 -5 1 -7 -2 -4 -7 3 -5 -24 -60 -61 -122 -36 -63 -82 -146 -101 -186
-20 -40 -40 -69 -45 -66 -6 3 -7 1 -4 -5 10 -15 -3 -43 -16 -35 -5 3 -7 1 -3
-5 9 -14 -14 -63 -27 -55 -6 3 -7 1 -4 -4 4 -6 -13 -53 -37 -104 -48 -103
-176 -421 -176 -438 0 -6 -5 -11 -11 -11 -5 0 -8 -4 -5 -9 3 -5 -3 -35 -15
-67 -11 -33 -33 -106 -50 -164 -16 -58 -33 -112 -36 -120 -3 -8 -7 -26 -9 -38
-1 -13 -10 -54 -18 -90 -34 -151 -47 -295 -45 -482 2 -102 6 -192 10 -200 3
-8 17 -49 29 -90 63 -213 224 -363 430 -401 36 -6 72 -14 80 -16 24 -8 160 -3
225 8 129 22 246 77 376 175 31 24 60 40 64 36 5 -4 5 -2 1 5 -3 6 3 18 15 26
12 9 120 113 240 232 133 131 224 213 231 209 6 -4 8 -3 5 2 -5 8 81 78 137
111 48 29 183 93 201 96 11 2 27 7 35 10 49 21 136 27 393 27 317 0 386 -8
510 -60 89 -37 196 -101 241 -144 20 -18 36 -31 36 -28 0 11 264 -247 326
-318 17 -19 70 -71 119 -115 49 -44 97 -88 107 -98 10 -9 20 -17 23 -17 3 0
24 -15 47 -32 24 -18 70 -46 103 -63 33 -16 63 -34 67 -40 4 -5 8 -7 8 -3 0 4
12 3 28 -3 100 -40 293 -51 420 -24 80 16 171 54 219 90 17 14 38 24 45 23 6
-2 12 2 13 7 0 6 20 35 44 65 51 64 101 167 126 260 23 87 32 375 16 507 -7
54 -23 153 -37 221 -13 68 -21 128 -18 134 4 6 3 8 -3 5 -8 -5 -47 123 -48
158 0 6 -2 12 -5 15 -9 9 -122 344 -123 367 -1 11 -5 19 -8 17 -3 -2 -19 29
-34 69 -15 40 -41 101 -58 137 -73 158 -87 193 -80 202 3 6 2 8 -4 5 -7 -4
-82 129 -86 153 -1 3 -5 10 -9 15 -14 16 -138 238 -138 246 0 4 -3 9 -7 11
-18 7 -103 150 -97 160 4 7 3 8 -4 4 -11 -7 -35 26 -27 38 3 3 2 4 -1 2 -4 -3
-23 16 -44 42 -53 67 -182 183 -211 190 -8 2 -17 8 -20 14 -3 5 -9 9 -13 8 -3
0 -28 9 -54 20 -80 36 -200 60 -299 60 l-92 0 33 -48 c44 -66 61 -147 46 -215
-7 -29 -19 -65 -28 -82 -21 -42 -189 -212 -237 -240 -118 -68 -256 -49 -366
52 l-26 24 -6 -66 c-7 -91 -47 -167 -111 -216 -66 -50 -113 -61 -259 -61 -163
0 -219 15 -286 81 -60 58 -80 104 -88 193 l-6 67 -41 -33 c-84 -69 -175 -95
-258 -76 -79 18 -123 48 -224 152 -99 101 -115 126 -134 205 -15 68 2 149 46
215 l33 48 -102 0 c-74 -1 -126 -7 -187 -24z m2387 -777 c45 -22 80 -62 89
-101 6 -25 8 -68 4 -80 -1 -5 -3 -16 -4 -25 -4 -38 -38 -83 -82 -109 -106 -62
-233 -11 -265 109 -14 52 -5 108 24 152 25 39 71 69 93 61 9 -3 12 -1 9 4 -12
19 87 11 132 -11z m-2189 -48 c60 -31 94 -85 91 -146 -1 -17 -1 -63 0 -102 l1
-73 99 0 c140 0 196 -24 227 -97 31 -72 11 -141 -53 -190 -35 -27 -41 -28
-161 -30 -68 -1 -127 -5 -131 -9 -3 -4 0 -4 7 0 21 12 16 -200 -6 -244 -10
-19 -23 -34 -31 -32 -7 1 -10 -2 -6 -8 11 -18 -57 -50 -106 -50 -35 0 -56 7
-86 29 -59 43 -75 92 -71 217 l3 99 -105 -3 c-79 -2 -114 1 -143 13 -23 9 -35
20 -31 27 4 6 3 8 -4 4 -18 -11 -54 52 -57 99 -4 58 28 123 75 150 28 16 57
21 148 24 l112 3 1 72 c0 124 5 152 28 189 43 70 127 95 199 58z m1794 -281
c161 -45 180 -266 30 -341 -117 -58 -252 29 -253 164 -1 84 40 145 118 172 47
17 58 18 105 5z m758 -19 c41 -21 76 -68 91 -125 28 -105 -68 -226 -181 -226
-45 0 -124 36 -114 51 4 7 3 9 -3 6 -24 -15 -73 74 -73 133 0 142 150 228 280
161z m-342 -363 c113 -76 103 -256 -18 -318 -46 -24 -128 -27 -168 -6 -55 29
-112 112 -112 163 0 67 50 145 112 177 49 25 135 17 186 -16z"/>
</g>
</svg>
